<?xml version="1.0" encoding="UTF-8" standalone="no"?>
<svg width="1920" height="1080" viewBox="0 0 1920 1080" xmlns="http://www.w3.org/2000/svg">
  <rect id="field" fill="#d40000" width="1920" height="1080" x="0" y="0" />
  <g id="charge" style="fill:#ffff00">
    <path id="lambda" d="m 384.74429,149.22561 94.40611,252.17595 -35.6077,0 -57.33763,-151.19592 -70.48509,151.19592 -35.60765,0 89.65841,-196.11658 -13.51278,-36.15552 Q 347.67573,146.1214 328.13702,146.1214 l -17.52985,0 0,-28.8514 21.36462,0.36532 q 41.26848,0.54773 52.7725,31.59029 z" />
    <path id="star" d="m 400.63644,397.94193 -19.8583,-14.03399 -20.08255,13.71224 7.23321,-23.19111 -19.26907,-14.82998 24.32864,-0.29891 8.17359,-22.87768 7.80273,23.00638 24.32067,0.6908 -19.50632,14.51763 z" />
    <path id="left-paren" d="m 202.71554,466.991 20.56852,-17.57669 c -48.61648,-42.63287 -71.05498,-90.50144 -71.05498,-152.20685 0,-61.70558 22.4385,-109.57402 71.05498,-152.20691 l -20.56852,-17.57663 c -51.23426,40.76293 -82.64802,97.98076 -82.64802,169.78354 0,71.80278 31.41376,129.02055 82.64802,169.78354 z" />
    <path id="right-paren" d="m 556.92069,466.991 c 51.2342,-40.76299 82.64793,-97.98076 82.64793,-169.78354 0,-71.80278 -31.41373,-129.02061 -82.64793,-169.78354 l -20.56848,17.57663 c 48.61638,42.63289 71.0548,90.50133 71.0548,152.20691 0,61.70541 -22.43842,109.57398 -71.0548,152.20685 l 20.56848,17.57669 z" />
  </g>
</svg>
