<?xml version="1.0" encoding="UTF-8" standalone="no"?>
<svg width="1920" height="1080" viewBox="0 0 1920 1080" xmlns="http://www.w3.org/2000/svg">
  <rect id="field" fill="#d40000" width="1920" height="1080" x="0" y="0" />
  <g id="charge" style="fill:#ffff00">
    <path id="lambda" d="m 939.74139,346.75342 137.52361,367.35016 -51.8706,0 -83.52499,-220.2505 -102.67716,220.2505 -51.87059,0 130.60748,-285.68724 -19.68422,-52.66859 q -12.50214,-33.51638 -40.96446,-33.51638 l -25.53629,0 0,-42.02848 31.12235,0.53201 q 60.11668,0.79801 76.87487,46.01852 z" />
    <path id="star" d="m 963.0003,708.59155 -28.73088,-20.3043 -29.05533,19.8388 10.46496,-33.55278 -27.87839,-21.45595 35.19855,-0.43246 11.82552,-33.09931 11.28895,33.28551 35.18702,0.99945 -28.22164,21.00404 z" />
    <path id="left-paren" d="m 674.57609,809.64914 29.96258,-25.60439 C 633.71802,721.9405 601.03158,652.20941 601.03158,562.32168 c 0,-89.88773 32.68644,-159.61882 103.50709,-221.72307 L 674.57609,314.99422 C 599.94203,374.3746 554.181,457.72504 554.181,562.32168 c 0,104.59663 45.76103,187.94708 120.39509,247.32746 z" />
    <path id="right-paren" d="m 1190.5546,809.64914 c 74.634,-59.38038 120.3951,-142.73083 120.3951,-247.32746 0,-104.59664 -45.7611,-187.94708 -120.3951,-247.32746 l -29.9626,25.60439 c 70.8206,62.10425 103.5071,131.83534 103.5071,221.72307 0,89.88773 -32.6865,159.61882 -103.5071,221.72307 l 29.9626,25.60439 z" />
  </g>
</svg>
